Coordinates
version=1
nRows=17
nColumns=38
inDegrees=no

Units are S.I. units (second, meters, Newtons, ...)
If the header above contains a line with 'inDegrees', this indicates whether rotational values are in degrees (yes) or radians (no).

endheader
time	pelvis_tilt	pelvis_list	pelvis_rotation	pelvis_tx	pelvis_ty	pelvis_tz	hip_flexion_r	hip_adduction_r	hip_rotation_r	knee_angle_r	ankle_angle_r	subtalar_angle_r	mtp_angle_r	hip_flexion_l	hip_adduction_l	hip_rotation_l	knee_angle_l	ankle_angle_l	subtalar_angle_l	mtp_angle_l	lumbar_extension	lumbar_bending	lumbar_rotation	arm_flex_r	arm_add_r	arm_rot_r	elbow_flex_r	pro_sup_r	wrist_flex_r	wrist_dev_r	arm_flex_l	arm_add_l	arm_rot_l	elbow_flex_l	pro_sup_l	wrist_flex_l	wrist_dev_l
0.45	0.232729	1.54117	-1.70245	0.657174	1.08678	1.021	0.486808	0.00341963	-0.0542789	0.461096	-0.134921	0	0	-0.241816	0.0327437	-0.192313	0.267024	-0.135047	0	0	-0.506266	0.012496	0.0715289	-0.0284961	-0.314292	0.386449	0.527802	1.19546	0	0	0.132534	-0.323992	0.557351	0.525498	1.11303	0	0
0.46	0.262954	1.54504	-1.72256	0.658017	1.07642	1.01892	0.489526	-0.0012344	-0.0621466	0.435402	-0.131753	0	0	-0.250115	0.029462	-0.186858	0.26338	-0.132625	0	0	-0.502756	0.017088	0.0683568	-0.0332	-0.314605	0.381313	0.528878	1.19554	0	0	0.133726	-0.324576	0.56157	0.528698	1.11386	0	0
0.47	0.285654	1.54747	-1.73541	0.658786	1.06592	1.01689	0.491868	-0.00528971	-0.0664646	0.420393	-0.125839	0	0	-0.260475	0.0260197	-0.181119	0.258565	-0.130293	0	0	-0.500749	0.0216322	0.0654688	-0.0403896	-0.31325	0.364984	0.532286	1.20532	0	0	0.134518	-0.325892	0.566814	0.533033	1.11376	0	0
0.48	0.296087	1.54999	-1.73614	0.659535	1.05523	1.01483	0.495315	-0.00863021	-0.0677774	0.415956	-0.124877	0	0	-0.269959	0.02164	-0.178242	0.256489	-0.128924	0	0	-0.497366	0.0265536	0.0604794	-0.0423403	-0.316144	0.375344	0.532032	1.19297	0	0	0.132465	-0.32562	0.564309	0.536259	1.11832	0	0
0.49	0.261399	1.54998	-1.69107	0.660314	1.04443	1.013	0.495436	-0.011482	-0.0681526	0.417987	-0.120401	0	0	-0.282886	0.016768	-0.173478	0.252718	-0.127197	0	0	-0.497445	0.0324648	0.0561019	-0.0469511	-0.316504	0.36982	0.53359	1.19065	0	0	0.132029	-0.325682	0.566731	0.539256	1.12097	0	0
0.5	0.229703	1.54781	-1.64891	0.661075	1.03345	1.0113	0.493636	-0.0145679	-0.068994	0.428769	-0.107903	0	0	-0.298913	0.0122927	-0.167849	0.246908	-0.125781	0	0	-0.500393	0.0382281	0.0530217	-0.0547934	-0.314404	0.34924	0.537421	1.19755	0	0	0.133096	-0.327081	0.575838	0.543269	1.11956	0	0
0.51	0.208458	1.54677	-1.61793	0.661768	1.02213	1.00944	0.492889	-0.0169376	-0.0674007	0.446479	-0.103247	0	0	-0.312582	0.00715975	-0.167151	0.244764	-0.125065	0	0	-0.500735	0.0436684	0.0488145	-0.0588902	-0.314423	0.346776	0.536725	1.19498	0	0	0.131735	-0.327148	0.578467	0.545257	1.12101	0	0
0.52	0.194447	1.54573	-1.59438	0.662358	1.01049	1.00751	0.49273	-0.0189927	-0.067218	0.472725	-0.103444	0	0	-0.326504	0.00208063	-0.164713	0.242354	-0.124645	0	0	-0.500159	0.0487722	0.0434271	-0.0624019	-0.313457	0.345199	0.534047	1.19763	0	0	0.128367	-0.327241	0.577156	0.54727	1.12401	0	0
0.53	0.170921	1.54568	-1.56255	0.662649	0.998543	1.00552	0.494969	-0.0198348	-0.0673135	0.505318	-0.123314	0	0	-0.33924	-0.00334642	-0.161163	0.240601	-0.124373	0	0	-0.49819	0.053289	0.0390444	-0.0674925	-0.308867	0.331108	0.530324	1.2122	0	0	0.124856	-0.327328	0.576201	0.548136	1.12521	0	0
0.54	0.0824898	1.54645	-1.4665	0.662748	0.986583	1.00365	0.500456	-0.0195485	-0.0680564	0.538995	-0.153879	0	0	-0.349414	-0.0106573	-0.156901	0.242305	-0.124237	0	0	-0.495412	0.0590756	0.0352869	-0.0709559	-0.307277	0.329572	0.527403	1.20887	0	0	0.122151	-0.32713	0.578289	0.54763	1.12292	0	0
0.55	-0.0927566	1.54592	-1.28508	0.662601	0.974682	1.00229	0.505859	-0.0163258	-0.0672438	0.567977	-0.16787	0	0	-0.358638	-0.0202509	-0.15285	0.247177	-0.124857	0	0	-0.49446	0.0663054	0.0332939	-0.0732274	-0.305846	0.327913	0.524393	1.20514	0	0	0.120094	-0.326481	0.580628	0.546358	1.1205	0	0
0.56	-0.313741	1.54291	-1.06047	0.6622	0.962855	1.00151	0.511096	-0.00890733	-0.0633292	0.5967	-0.171435	0	0	-0.367341	-0.0315001	-0.150627	0.254838	-0.126455	0	0	-0.495867	0.0746751	0.0339713	-0.0742576	-0.305495	0.328032	0.52218	1.20204	0	0	0.119038	-0.32576	0.585419	0.544698	1.1168	0	0
0.57	-0.498208	1.53716	-0.875026	0.661587	0.951053	1.00122	0.515773	0.00228838	-0.0550354	0.627825	-0.174954	0	0	-0.37605	-0.0432486	-0.150467	0.264707	-0.128771	0	0	-0.499509	0.0835209	0.0367135	-0.0746401	-0.30649	0.329462	0.521811	1.19913	0	0	0.119644	-0.324514	0.594669	0.542035	1.11109	0	0
0.58	-0.627956	1.53065	-0.745944	0.660741	0.939023	1.00113	0.52017	0.0153625	-0.0430872	0.660286	-0.183022	0	0	-0.383347	-0.0546761	-0.151417	0.277797	-0.132261	0	0	-0.502693	0.091485	0.0377569	-0.0728479	-0.305973	0.330432	0.518816	1.20527	0	0	0.114919	-0.320621	0.582451	0.539575	1.12246	0	0
0.59	-0.700895	1.52398	-0.674224	0.659684	0.926638	1.00113	0.52166	0.0284715	-0.0301204	0.689153	-0.192069	0	0	-0.389323	-0.0655983	-0.153639	0.295302	-0.136377	0	0	-0.505827	0.0980106	0.0378642	-0.0714737	-0.304724	0.330548	0.516099	1.21095	0	0	0.108722	-0.318285	0.569709	0.538115	1.13305	0	0
0.6	-0.712171	1.51732	-0.663033	0.658591	0.913956	1.00123	0.517529	0.0387316	-0.0215784	0.711117	-0.197752	0	0	-0.394981	-0.0756105	-0.154639	0.317245	-0.141216	0	0	-0.509869	0.10313	0.035488	-0.0703405	-0.302581	0.330128	0.513294	1.21646	0	0	0.101371	-0.317906	0.557503	0.537849	1.14217	0	0
0.61	-0.705105	1.5117	-0.668224	0.657505	0.901066	1.00128	0.510473	0.0452633	-0.0220968	0.729026	-0.19108	0	0	-0.396209	-0.0861915	-0.158066	0.348652	-0.147559	0	0	-0.512227	0.107228	0.0287285	-0.0663179	-0.302359	0.347361	0.508029	1.21012	0	0	0.0906209	-0.31828	0.537734	0.538967	1.15491	0	0
